<svg version="1.1" id="Layer_1" xmlns="http://www.w3.org/2000/svg" x="0" y="0" viewBox="0 0 443 424" xml:space="preserve"><style>.st0{fill:#1a202c}</style><path class="st0" d="M222.5 23c1.3-6.4 2.2-12.8 6-18.4 1.9-2.7 4.1-4.9 7.7-4.6 3 .3 4.8 1.6 3 5-10 19.7-7.4 39.4.2 58.9 5 12.9 8.9 26.1 14.4 38.8 3.5 8.1-3 17.7-11.4 18.2-4.4.3-10.2-1.7-12.2 4.2-2.5 7.2-3.5 14.7 1.4 21.5 1.3 1.8 3.3 3.4 5.2 4.6 4.5 2.8 9.2.9 10.4-4.3.9-3.8 1.1-7.6-.4-11.3-1.1-2.5.2-3 2.3-2.6 4 .9 5.7 3.9 6.1 7.6.5 4 .1 8-1.2 11.8-3.3 9.2-17.3 11.5-25.7 4.3-2.8-2.4-4.8-5.3-6.9-9.4-4.4 9.5-11.2 13.8-20.9 13.5-5.5-.2-9.2-2.4-11.2-7.5-1.7-4.3-2-8.8-1.5-13.3.3-2.4 1.4-4.5 3.4-5.9 1.4-1 3.2-1.9 4.7-1.1 1.9 1-.1 2.6-.2 3.9-.1 1.3-.6 2.6-.5 3.9.2 4.3-.3 9.2 4.9 11 5 1.8 8-2.1 11.1-5 5.2-5 3.7-19.6 1.1-23.3-2.4-3.4-6.3-2.8-9.6-2.7-4.2.2-7.4-1.4-10.3-4.2-4.1-4.1-5.4-9.6-2.7-15.6 6.4-14.3 10.7-29.4 16.3-44 5.3-13.8 4.9-28.1 2.2-42.3-.7-3.5-2.6-6.5-4.2-9.6-1.7-3.4-.5-5.3 3.3-5.4 3.4-.1 5.5 2.1 7.2 4.6 3.8 5.5 4.7 12 6 18.4 2 4.5.5 9.3 1 13.9-.3 12.5-3 24.4-7.9 35.8-3.8 8.7-7.1 17.6-9.9 26.7-1.5 4.9-1.2 5.6 3.7 6.2 4.9.6 8.8 3 11.8 6.8 1.9 2.4 3.1 2.3 4.9-.1 3.1-3.9 7.1-6.5 12.3-6.8 3.5-.2 4.8-1.8 3.5-5.3-3.4-9.2-6.2-18.6-10.3-27.6-5-11-7.5-22.7-7.9-34.8.3-4.5-1.2-9.6.8-14.5zM129.8 259.3c-29.3-1.9-57.9-6.1-84.2-20.2-12.8-6.8-24.3-15-33.5-26.3-14.7-18-16.3-46.1-3.4-64.8.9-1.3 1.5-4.2 3.7-3.1 2 1-.1 2.9-.5 4.4-4.5 17.2-1.1 33.5 7.3 48.6 9 16.2 23.9 26.7 40 34.2 26.2 12.1 54 18.8 83.2 18.5 4.6 0 4.7-1.1 3.5-5.1-2.4-7.6-3.1-15.3 1.6-22.6 1.4-2.2 3.1-4.1 6-3 2.8 1 2.6 3.1 2.2 5.7-.9 6.9 2.2 13 4.6 19.2 3.1 7.9 5.9 15.8 6.9 24.4 1.4 10.9-9.6 23.3-16.9 26.1-2 .8-3.8.6-4.8-1.1-1.2-1.9.7-3 1.9-4 6.8-6.1 8.1-18.9 2.6-26.3-2.1-2.8-5.1-4.3-8.6-4.4-3.9-.4-7.8-.2-11.6-.2zM312.7 258.9c-4.1.2-8.3.2-12.4.7-4.3.5-7.3 3-8.6 7.3-1.5 4.8-2.4 9.7-1.7 14.8.5 3.5 2.5 6.1 5.3 8.2 1.4 1.1 3.5 2.3 2.3 4.3-1.4 2.3-3.7 1.8-5.7.6-11.2-6.5-19.4-17.6-14.7-34 2.4-8.5 6.2-16.5 8.9-24.9 1.2-3.5 2.2-7.1 1.2-10.8-.7-2.7 0-4.2 2.3-5.2s4.1.2 5.2 1.8c1.9 2.7 3.8 5.5 3.9 9 .2 5.3.6 10.7-1.8 15.7-1.7 3.6.1 4.1 3.3 4.1 23.2.2 45.5-4.6 67.5-11.9 17.8-5.9 33.6-15 46.4-28.3 16.9-17.5 22.7-38.6 16.4-62.5-.3-1.1-1.3-2.3.1-3.1 1.7-.9 2.2 1 2.9 1.9 13.6 17.9 12.4 47.8-2.6 66.1-14.2 17.4-33.1 27.6-53.6 35.1-20.8 7.7-42.6 10.1-64.6 11.1zM221.6 270.3c5.2-15.2 10.6-28.9 19.6-40.9 3.5-4.7 7.4-9 12.2-12.4 1.2-.8 2.5-1.6 3.9-2.2 1.2-.6 2.7-1.1 3.6.2.9 1.3-.7 2-1.2 2.9-6.2 11-13.3 21.4-18.6 33-5.8 12.6-8.7 25.8-10.7 39.3-2.8 19-2 38.2-2.9 57.3-1.2 23.8-1.4 47.6-2 71.4 0 .7 0 1.3-.1 2-.2 1.6-.6 3-2.6 3-2.2 0-2.1-1.7-2.3-3.2-1.3-11.1-1.4-22.3-1.6-33.4-.4-28.1-1.5-56.2-3.3-84.3-1.7-25.6-10.5-48.9-23.7-70.7-3-5-6.1-9.9-9.1-14.9-.5-.8-1.7-1.5-.8-2.5.9-1 2.1-.7 3.3-.3 4.4 1.9 7.9 4.9 11.1 8.3 8.6 9.1 14.4 19.9 19.1 31.4 2 5 3.8 10 6.1 16z"/><path class="st0" d="M170.5 293.5c2.8-5.7 5.3-11 7.2-16.7 2.9-8.8 1.7-17.3-1.2-25.9-4.5-13.2-12.4-24.2-20.4-35.3-6.1-8.5-8.8-18.2-8.5-28.6 0-1.5-.2-3.3 1.4-4 1.8-.7 2.5 1.2 3.4 2.3 10.2 12.6 24.9 15 39.6 17.4 3.2.5 6.5.8 10.4 1.3-4-7.1-9.6-12.1-14.9-17.4-10.8-10.9-18.5-23.4-21.5-38.6-1.3-6.5-.8-13 .3-19.6 4 6.3 9.5 11.5 9.7 19.7.1 5.8 4.1 10.7 7.3 15.6 6.7 10.3 14.3 20 22 29.6 6.2 7.8 9 16.9 9.6 27.9-15.1-8.4-31.6-10.6-47.1-16.5-.7 2.4 1.1 3.4 2.1 4.7 8.2 10.1 15.4 20.8 19.5 33.4 6.4 19.6-1.2 35.1-14.1 49-1.1 1.3-2.5 2.4-4.8 1.7zM228.3 221.4c.3-11.1 3.3-20.1 9.4-27.9 7.6-9.7 15.2-19.4 22-29.7 4.3-6.5 7.7-13.1 8.2-21.1.4-5.9 6.2-9.2 8.5-14.4 1.7 8.3 1.8 16.4-.5 24.5-3.7 13.2-10.9 24.2-20.4 33.8-5.2 5.3-10.9 10.2-14.9 17.5 15.2-2.3 30.1-3.1 42.7-12 2.9-2 5.4-4.4 7.6-7.2.8-1 1.5-2.6 3.1-2 1.4.5 1.4 2.2 1.4 3.5.4 10.8-2.3 20.8-8.8 29.6-8.8 12-16.9 24.2-21.3 38.7-3.3 10.8-1.3 20.7 3.3 30.4 1.3 2.8 1.8 5.8 4.6 8.6-3.3.2-4.8-.9-6.1-2.4-15.5-17.6-20.6-32.6-10.6-55.8 4.2-9.7 10.3-18.2 17-26.3.9-1.1 2.3-2 2-4.4-15.4 5.9-31.9 7.9-47.2 16.6zM48.4 194.3c.1-9 6.6-15.8 15.6-16.2 7-.3 13 2.4 18.6 6.3 1.5 1 2.7 3.7 4.9 1.9 2.1-1.7.9-4 .1-6-3.7-8.6-7.5-17.1-13.8-24.2-1-1.1-1.6-2.5-2.7-3.6-1.9-2.1-1.9-3.5.9-4.8 2.3-1.1 3.9-3 5.6-4.9 5.3-6.3 5.6-7.4 1-14.3-8.8-13.1-1.6-27.8 6.1-34 1.7-1.3 3.5-3.4 6.2-1.4 2.8 2.1 1.1 4.2 0 6.1-4.7 7.6-3.5 14.7 1 22 8.1 13.1 7.1 21.7-3.5 32.6-2 2.1-1.7 3.1-.1 5.2 7.4 9.5 13.9 19.5 15.9 31.8 1.4 8.8 1.3 17.6-.4 26.3-.5 2.4-1.8 4.3-3.9 5.5-2.3 1.3-4.2 1.4-5.7-1.5-3.4-6.7-7.3-13-12-19-3.6-4.7-8.1-7.9-13.7-9.4-2.2-.6-4.9-1.5-6.5.7-1.8 2.4-.1 4.8 1.5 6.7 1.1 1.3 2.3 2.5 3.8 3.2 3.1 1.6 3.5 3.8 2 6.6s-4 3.9-7.2 2.9c-7.7-2.2-13.7-10.5-13.7-18.5zM338 201.3c-.4-16.3 6.8-29.6 16.5-41.8 2.2-2.7 2-4-.4-6.4-9.6-9.6-10.9-19.1-3.7-30.6 5.2-8.3 6.7-16.1 1.1-24.6-1.1-1.7-1.3-3.3.5-4.8 1.9-1.6 3.4-.6 5 .4 10.6 6.4 14.6 22.5 8.3 33.6-5.3 9.2-4.4 13.9 4.9 19.9 3.6 2.3 3.3 3.9 1 6.6-6.5 7.5-11.3 16-15.1 25.2-.6 1.5-1.1 3.1-1.5 4.7-.3 1.2.1 2.4 1.2 3.1 1.3.8 2.3 0 3.1-.8 3-3.1 6.9-4.7 10.8-6.2 10.2-3.9 20.9 0 24.1 8.7 3.4 9.5-2 20.6-12 24.4-3.3 1.2-6 .4-7.7-2.6-1.7-3-1-5.4 2.3-6.8.3-.1.6-.3.8-.6 2.7-2.3 6.2-5.1 4.3-8.6-2.1-3.9-6.1-1.3-9.3-.3-7 2.1-10.6 7.8-14.5 13.2-2.8 3.9-5 8.3-7.6 12.3-1.1 1.8-1.4 4.9-4.7 4.2-3.1-.7-5-2.7-5.7-5.7-1.1-4.5-1.4-9.2-1.6-13.9-.1-1-.1-1.8-.1-2.6zM104.8 178c3.8.7 7.4 1.3 11.1.7 2.1-.3 2.4 1.1 3 2.6 1.5 4.1 3.1 8.1 4.6 12.1.5 1.4.8 3.2 2.6 3.2 2.1.1 2.5-1.9 3-3.5 2.5-8.3 2-16.8 1.8-25.3-.8-28.2-4.3-56.1-14.4-82.7-3.7-9.6-8.6-18.7-13-28-.5-1.1-2-2.2-.9-3.6s2.9-1.5 4.6-1.3c2.5.4 4.1 2 5.7 3.7 5.5 6.1 8.2 13.7 11 21.1 7.7 20.4 15.5 40.8 17.4 62.8 1.9 22 1.9 43.9-3.6 65.5-1.7 6.6-5.2 12.2-8.3 18.1-.5 1-1.2 2.2-2.5 2.1-1.8-.1-1.7-1.7-2.1-3-2.7-10.2-7-19.7-13.1-28.4-3.3-4.6-6-9.7-6.9-16.1zM338.3 177.8c-1.2 7.1-4.2 12.5-7.7 17.6-5.6 8.2-9.5 17.1-12.2 26.7-.4 1.4-.1 3.4-2.1 3.5-1.8.1-2.3-1.7-3.1-2.9-8.1-12.6-10.4-26.8-11.9-41.3-4.2-41.1 6.1-79.2 23-116.2 1.7-3.8 3.9-7.3 6.9-10.3 1.6-1.6 3.4-2.8 5.7-2.6 3 .2 4.6.9 2.9 4.7-5.8 12.8-13.1 25-17 38.8-8.2 28.8-11.4 58.1-10.5 88 .1 3.4 1.2 6.9 2 10.3.3 1.3 1 2.6 2.6 2.7 1.6.1 2.1-1.3 2.6-2.6 1.5-4.1 3.1-8.1 4.4-12.2.8-2.4 1.8-3.6 4.6-3.1 3 .5 6.2-.1 9.8-1.1zM366.5 344.5c.7-9.8 3.7-21.7 8.8-33 2.3-5.1 4.7-10.3 7.4-15.2 3.9-7.1 4.7-14.4 2.7-22.2-.5-1.9-1.4-4 1.6-4.8 3.3-.9 2.4 1.8 2.8 3.2 1.4 4.4 4.7 5.3 7.8 1.9 2.8-3 4.5-6.6 4.2-10.9-.6-7.3-3.4-8.9-10-6-2.4 1.1-4.9 2.1-7.4 3-1.7.6-3.8 2.3-4.9-.9-.8-2.3-1.5-4.9 1.3-6.1 5.3-2.5 10.6-4.9 16.1-6.7 4.6-1.4 10.4 1.4 12.8 5.7 4.1 7.5 5 15.5 1.6 23.5-2.1 4.9-5.5 8.4-11.3 8.3-2.8 0-5 .8-5.6 3.8-4.1 20.1-12.9 38.8-18.1 58.5-2.7 10.4-2.5 20.4 4.7 29.3.7.8 1.7 1.9.5 3-1 1.1-2.2.5-3.2-.1-4.4-2.9-7-7.1-8.6-11.9-2-6.2-3.3-12.9-3.2-22.4zM76.8 347.3c-1.1 9.8-1.6 19.5-7.8 27.6-.4.5-.7 1.2-1.2 1.6-1.8 1.6-3.7 4.7-6.1 2.7-2.3-1.9 1-3.6 2-5.2 5.2-8.4 5.3-17.2 3.2-26.5-2.3-10.3-6.3-20-9.9-29.8-3.4-9.4-5.6-19.1-8.3-28.7-.7-2.5-1.8-4-4.6-4.4-9.4-1.4-13.9-6.6-14.5-16.4-.2-3.2.2-6.3 1-9.4 2.9-11.1 10.3-14.6 20.8-9.9 3.2 1.4 6.4 2.8 9.6 4.1 3.3 1.3 3.3 3.8 2.4 6.6-1.1 3.5-3.4 1.6-5.2.9-3.3-1.2-6.5-2.6-9.7-4-3.1-1.4-5-.3-6.4 2.7-2.3 5.1-.8 12.4 3.6 16 3.3 2.7 6.1 1.5 7.4-3.3.4-1.5.2-3.1 2.6-2.5 1.7.5 2.8 1.3 2.1 3.2-5 14.4 3.5 25.7 9 37.6 5.8 11.7 9 24.2 10 37.1zM128.1 297.8c.6-3.5 1.2-5.9 1.4-8.3.5-8.1-1.8-10.9-9.8-12-2.9-.4-6-.3-9-.1-3.8.3-6.2 1.9-7 6.3-2.6 13.7-2 27.2 1.3 40.6 2.8 11.3 6 22.5 12.2 32.6 1.1 1.8 2.7 3.8 0 5.6-2.4 1.5-4-.2-5.5-1.8-12.6-13.2-18-29.6-20.9-47.1-2.4-14.6-.7-28.8 2.9-43 1-3.8 2.9-5.6 7-5.3 10.1.7 20.2 2.1 30 4.5 4.7 1.1 9.7 3.2 10.4 8.8.9 6.5-3.1 11.3-7.3 15.7-1.4 1.1-3.3 1.9-5.7 3.5zM314.7 297.3c-7.4-3-10.9-8.8-12.8-15.8-1.1-4.2 1.2-7.4 4.8-9.5 3.8-2.3 7.9-3.4 12.3-3.9 7.8-.9 15.4-2.7 23.2-3 4-.2 6.1 1.2 7.2 5.1 7.6 28 4.8 54.7-9.9 79.9-2.3 4-5.6 7.4-8.6 11-1.4 1.6-3.1 2.7-5.2 1.2-2.3-1.7-.9-3.5 0-5.2 11-20.2 16.3-41.7 14.9-64.7-.2-2.5-.6-4.9-1.1-7.4-1.4-6.5-2.6-7.5-9.4-7.6h-.5c-14.8-.2-18.3 4.1-14.9 18.4.1.2 0 .7 0 1.5z"/></svg>